<?xml version="1.0" encoding="utf-8"?>
<!-- Generator: Adobe Illustrator 19.2.0, SVG Export Plug-In . SVG Version: 6.00 Build 0)  -->
<svg version="1.1" id="Capa_1" xmlns="http://www.w3.org/2000/svg" xmlns:xlink="http://www.w3.org/1999/xlink" x="0px" y="0px"
	 viewBox="0 0 25 24.1" style="enable-background:new 0 0 25 24.1;" xml:space="preserve">
<style type="text/css">
	.st0{fill:#FFFFFF;}
</style>
<g>
	<path class="st0" d="M20.4,9.7H20V7.5c0-4.1-3.2-7.5-7.3-7.5c-0.1,0-0.3,0-0.4,0C8.3,0.1,5,3.5,5,7.5v2.2H4.6
		c-0.7,0-1.3,0.7-1.3,1.7v11c0,0.9,0.6,1.7,1.3,1.7h15.9c0.7,0,1.3-0.8,1.3-1.7v-11C21.8,10.5,21.2,9.7,20.4,9.7z M14,16.9v3.3
		c0,0.4-0.3,0.7-0.7,0.7h-1.6c-0.4,0-0.7-0.3-0.7-0.7v-3.3c-0.4-0.4-0.6-0.9-0.6-1.4c0-1.1,0.8-2,1.9-2c0.1,0,0.3,0,0.4,0
		c1,0,1.9,0.9,1.9,2C14.6,16,14.4,16.5,14,16.9z M16.9,9.7h-4.2h-0.4H8.1V7.5c0-2.4,2-4.4,4.4-4.4s4.4,2,4.4,4.4L16.9,9.7L16.9,9.7z
		"/>
</g>
</svg>
