<?xml version="1.0" encoding="utf-8"?>
<!-- Generator: Adobe Illustrator 19.2.0, SVG Export Plug-In . SVG Version: 6.00 Build 0)  -->
<svg version="1.1" id="Lager_1" xmlns="http://www.w3.org/2000/svg" xmlns:xlink="http://www.w3.org/1999/xlink" x="0px" y="0px"
	 viewBox="0 0 124.9 147.7" style="enable-background:new 0 0 124.9 147.7;" xml:space="preserve">
<style type="text/css">
	.st0{fill:#FE7F9C;}
</style>
<g id="aC5dLN.tif">
	<g>
		<path class="st0" d="M47.6,148.2c-0.9,0-1.8,0-2.6,0c-0.9-0.3-1.7-1.1-2.7-0.9c-1.1,0.3-1.5-0.3-1.9-1c-1.2-2.3-2.3-4.7-2.7-7.3
			c-0.7-3.8-1.1-7.6-0.1-11.4c0.1-0.4,0.3-0.9-0.3-1.1c-1.1-0.4-1.1-1.4-1.1-2.2c0-2.4-0.4-4.7-0.4-7.1c0-1.6-0.1-2.8,1.9-4
			c3.2-1.9,6.2-2.3,9.6-1.2c0.3,0.1,0.6,0.1,0.8-0.1c1.3-1.4,3-2.2,4.6-3.2c1.1-0.7,2-3.4,1.4-4.2c-2.4-3.4-3.3-7.2-3.1-11.3
			c0.2-4.1-1.1-7.7-3.5-11c-0.5-0.7-1-0.9-1.8-0.6c-2.5,0.7-4.9,1.6-7.3,2.6c-0.7,0.3-1.3,0.7-1.5,1.6c-0.3,1.1-1.1,1.9-2.2,2.4
			c-0.7,0.4-1.2,0.9-1.3,1.7c-0.3,2.9-1.6,5.4-3.3,7.8c-1.6,2.2-3.2,2.8-5.6,2.3c-1-0.2-1.9-0.6-2.7-1.3c-0.5-0.4-1.1-0.8-1.8-0.8
			c-2.2,0.1-4.1-1.4-6.3-1.5c-0.7-0.1-1.2-0.7-1.5-1.3c-0.5-0.9-1.1-1.6-1.8-2.3C9.6,91.9,9,91,8.8,90c-0.4-2-1.6-3.8-1.5-5.8
			c0-1.3,0-2.5,0-3.8c0.8-1.6,2-2.7,3.4-3.7c1.6-1.2,3.6-1.5,5.1-2.7c1.8-1.3,3.7-2,6-1.9c1,0.1,1.9-0.1,2.7-0.9
			c0.7-0.8,1.7-1,2.8-0.9c4,0.5,7.3-1.6,10.9-2.7c0.7-0.2,0.8-0.6,0.3-1.2c-0.5-0.5-0.6-1.2-0.5-1.9c0.1-1.2-0.5-1.6-1.6-1.9
			c-3.9-1.1-6.8-3.5-8.2-7.4c-0.2-0.6-0.5-1.1-1-1.5c-5.8-3.7-5.1-9.3-2.5-13.1c1.1-1.6,1.5-3.2,1.7-4.9c0.1-1.4,0.4-2.7,0.8-4
			c1.2-4.3,2.7-8.6,5.2-12.4c3.2-4.8,7.1-9,12.9-10.5c5.6-1.4,10.5-0.4,14.8,3.6c1.7,1.6,3,3.5,4.5,5.8c0.1-1.6-0.3-2.8-0.2-4
			c0.4-3.1,1.3-6.2,2.5-9.1c0.9-2.1,2-4.3,4.6-4.9c0.3,0,0.6,0,0.9,0c1.2,0.5,2.4,0.5,3.7,0.3C77,0.4,78,0.4,79.2,0.9
			c1.3,0.6,2.6,1,4.1,1.1c3.6,0.2,5.9,2.9,8.1,5.4c0.1,0.1,0.2,0.4,0.2,0.5c0.1,2,0.2,4-0.7,5.7c-0.6,1.3-0.9,2.5-1,3.8
			c0,0.5,0.2,1,0.1,1.6c-0.6,2.1-1.3,4.2-3.1,5.7c-0.7,0.6-1.1,1.1-0.7,2.2c0.5,1.6-0.4,3.2-1.8,3.5c-1.1,0.2-1.4,0.8-1.6,1.7
			c-1.1,5.5-2.3,11.1-3.5,16.6c-1.1,5-2.2,9.9-3.4,14.9c-0.2,1,0.1,1.4,0.9,1.8c2.4,1.4,4.5,3.2,6.6,5c1.8,1.5,1.9,4,3.4,5.7
			c0.7,0.8,1.2,1.2,2.2,1.2c1.3,0,2.5-0.1,3.8,0.1c2.1,0.5,4.1,1.3,6.1,2c0.8,0.3,1.5,0.6,2.4,0.2c1.9-0.8,3.9-1.6,3.8-4.2
			c0-0.3,0.2-0.5,0.4-0.8c1.8-3.2,4.5-4.7,8.3-4.5c2.6,0.2,4.9,0.9,6.5,3c0.6,0.8,1.3,1.3,2.2,1.5c0,0.5,0,1,0,1.5
			c-0.6,2.6-1.1,5.1-1.7,7.7c-0.6,2.6-1,5.2-2.3,7.6c-0.5,1-1.6,1.9-0.1,3c0.1,0.1,0.1,0.4,0.1,0.6c-0.9,3.7-1.3,7.5-2.3,11.2
			c-0.1,0.5-0.5,0.8-1,0.6c-0.8-0.3-1.4,0.1-2.1,0.2c-1.6,0.2-3.3,0.5-4.7-0.2c-1.6-0.8-3.5-0.8-4.7-2.3c-0.2-0.2-0.6-0.3-0.9-0.4
			c-3.2-1.2-6.5-2-9.6-3.3c-1.4-0.6-2.8-1-4.4,0.1c-1.9,1.5-4.2,2.5-6.4,3.5c-1,0.4-1.5,1.1-1.9,2.1c-1.4,3.6-3.1,7-4.8,10.5
			c-1.4,2.7-3.1,5.2-5.5,7c-4.9,3.9-10,7.5-14.5,11.9c-0.4,0.4-0.6,0.7-0.4,1.2c0.7,3.3,0,6.3-2.6,8.6
			C51.1,147.2,49.4,147.8,47.6,148.2z"/>
	</g>
</g>
</svg>
