<?xml version="1.0" encoding="utf-8"?>
<!-- Generator: Adobe Illustrator 19.2.0, SVG Export Plug-In . SVG Version: 6.00 Build 0)  -->
<svg version="1.1" id="Lager_1" xmlns="http://www.w3.org/2000/svg" xmlns:xlink="http://www.w3.org/1999/xlink" x="0px" y="0px"
	 viewBox="0 0 124.9 147.7" style="enable-background:new 0 0 124.9 147.7;" xml:space="preserve">
<style type="text/css">
	.st0{fill:#FE7F9C;}
</style>
<g id="_x34_tgcbW.tif">
	<g>
		<path class="st0" d="M0,112.5c0.7-4,2.9-7.1,5.8-9.9c20.3-20.2,40.6-40.5,60.9-60.9C79.8,28.6,92.9,15.4,106,2.1
			c0.9-0.9,1.8-1.7,3-2.1c0.9,0,1.7,0,2.6,0c2.8,1.3,4.7,3.6,6.5,6c1.4,1.9,0.9,4.3-1,6.3c-3.1,3.1-6.2,6.2-9.3,9.3
			c-0.7,0.7-1,0.9,0.1,1.7c2.2,1.4,3.9,3.2,5.4,5.3c1.4,2,0.9,4.4-1,6.4c-5.3,5.3-10.6,10.7-16,16c-1,1-1.2,1.5-0.1,2.6
			c2.7,2.6,2.6,5.3,0.2,8c-0.3,0.3-0.6,0.6-0.9,1c-1.6,1.8-2.9,1.8-4.6,0.1c-2.7-2.6-5.3-5.3-8-7.9c-0.6-0.6-1.3-1.1-2.3-1.1
			c-0.9,0.1-1.6,0.5-2,1.4c-0.5,1.2,0,2.1,0.8,2.9c2.5,2.6,5.1,5.1,7.6,7.7c0.3,0.3,0.7,0.7,1,1.1c0.9,1.1,0.8,2.5-0.1,3.4
			c-0.9,1-2.4,1.1-3.5,0.1c-1-0.9-1.9-1.9-2.9-2.8c-1.8-1.8-3.6-3.6-5.4-5.4c-1.5-1.5-2.9-1.7-4-0.6c-1,1.1-0.8,2.5,0.7,4
			c2.4,2.5,4.9,4.9,7.3,7.4c0.4,0.4,0.9,0.9,1.1,1.5c0.6,1.1,0.4,2.2-0.6,3c-0.9,0.8-1.9,0.9-2.9,0.3c-0.6-0.3-1.1-0.8-1.5-1.3
			c-2.5-2.5-5-5-7.5-7.4c-1.4-1.4-2.7-1.5-3.8-0.5c-1,1-0.9,2.3,0.3,3.7c2.6,2.7,5.3,5.3,7.9,8c1.7,1.7,1.8,3,0,4.6
			c-1.1,1-1,1.6,0,2.5c2.6,2.6,4.5,5.6,5.1,9.3c0.7,4.3-0.2,8.2-3.4,11.4c-1.2,1.2-2.5,2.4-3.7,3.7c-4.8,5.4-11.6,5.5-17.4,2.1
			c-1.6-0.9-3-2.1-4.2-3.5c-0.6-0.7-1.1-0.7-1.7,0c-3.1,3.2-6.3,6.3-9.5,9.5c-1.3,1.3-1.3,2.5,0,3.8c1.5,1.6,3.1,3.1,4.7,4.7
			c2.6,2.6,2.6,5.4,0.1,8c-3.3,3.4-6.7,6.7-10,10c-0.7,0.7-1.6,1.1-2.4,1.6c-1,0-1.9,0-2.9,0c-1.2-0.5-2.1-1.3-3-2.2
			c-6.4-6.5-12.8-13-19.4-19.3c-2.9-2.8-5-5.9-5.6-9.9C0,115,0,113.7,0,112.5z M73.5,99.1c0-2.8-1-5.3-3.1-7.6
			c-1.9-2.1-1.9-2.1-3.8-0.1c-0.5,0.5-1.1,1.1-1.6,1.6c-3.9,3.9-7.7,7.7-11.6,11.6c-0.5,0.5-1.1,0.9-0.3,1.6c1.5,1.5,3,2.8,5,3.6
			c3.7,1.5,6.5,0.9,9.3-1.8c1.3-1.3,2.6-2.7,4-4C72.8,102.7,73.6,101,73.5,99.1z"/>
		<path class="st0" d="M124.9,77.9c-0.6,1-1.4,1.9-2.3,2.8c-4.4,4.4-8.7,8.8-13,13.3c-2.6,2.6-4.7,2.6-7.3,0c-0.3-0.3-0.7-0.7-1-1
			c-1.7-1.8-1.9-4.2-0.1-5.9c4.9-5.1,9.9-10.2,14.9-15.2c1.7-1.7,4.1-1.7,5.8,0c1.1,1,2.3,2.1,2.9,3.5
			C124.9,76.1,124.9,77,124.9,77.9z"/>
		<path class="st0" d="M95.6,95.4c0.6,0,1.5,0.4,2.3,1.1c5.3,4.4,10.6,8.9,15.9,13.3c2.1,1.8,2.3,4.2,0.5,6.4
			c-0.3,0.4-0.6,0.7-0.9,1.1c-2,2.4-4.3,2.7-6.6,0.7c-4.7-3.9-9.3-7.8-13.9-11.7c-0.7-0.6-1.5-1.2-2.2-1.9c-1.6-1.6-1.7-3.7-0.4-5.5
			c0.6-0.8,1.2-1.5,1.9-2.2C92.9,95.8,94,95.4,95.6,95.4z"/>
	</g>
</g>
</svg>
