<?xml version="1.0" encoding="utf-8"?>
<!-- Generator: Adobe Illustrator 19.2.0, SVG Export Plug-In . SVG Version: 6.00 Build 0)  -->
<svg version="1.1" id="Capa_1" xmlns="http://www.w3.org/2000/svg" xmlns:xlink="http://www.w3.org/1999/xlink" x="0px" y="0px"
	 viewBox="0 0 25 25" style="enable-background:new 0 0 25 25;" xml:space="preserve">
<style type="text/css">
	.st0{fill:#FFFFFF;}
</style>
<g>
	<path class="st0" d="M12.5,20.3c0,0.4-0.2,0.8-0.6,1c-0.2,0.1-0.3,0.1-0.5,0.1c-0.3,0-0.5-0.1-0.7-0.3L4.4,16H1.1
		C0.5,16,0,15.5,0,14.9v-4.5c0-0.6,0.5-1.1,1.1-1.1h3.3l6.2-5.1c0.3-0.3,0.8-0.3,1.2-0.2s0.6,0.6,0.6,1V20.3L12.5,20.3z M16.9,18.5
		C16.9,18.5,16.8,18.5,16.9,18.5c-0.4,0-0.7-0.1-0.9-0.3L15.8,18c-0.4-0.4-0.5-1-0.1-1.5c0.9-1.2,1.3-2.5,1.3-3.9
		c0-1.5-0.5-3-1.5-4.2C15.2,8,15.2,7.4,15.6,7l0.2-0.2c0.2-0.2,0.5-0.3,0.9-0.3c0.3,0,0.6,0.2,0.8,0.4c1.3,1.6,2,3.6,2,5.8
		c0,2-0.6,3.9-1.8,5.4C17.5,18.3,17.2,18.5,16.9,18.5z M21.6,22c-0.2,0.2-0.5,0.4-0.8,0.4c0,0,0,0-0.1,0c-0.3,0-0.6-0.1-0.8-0.3
		L19.7,22c-0.4-0.4-0.5-1.1-0.1-1.5c1.8-2.2,2.8-4.9,2.8-7.8c0-3-1.1-5.8-3-8c-0.4-0.5-0.4-1.1,0.1-1.6l0.2-0.2
		c0.2-0.2,0.5-0.3,0.8-0.3c0.3,0,0.6,0.1,0.8,0.4C23.7,5.6,25,9,25,12.6C25,16.1,23.8,19.4,21.6,22z"/>
</g>
</svg>
