<?xml version="1.0" encoding="utf-8"?>
<!-- Generator: Adobe Illustrator 19.2.0, SVG Export Plug-In . SVG Version: 6.00 Build 0)  -->
<svg version="1.1" id="Lager_2" xmlns="http://www.w3.org/2000/svg" xmlns:xlink="http://www.w3.org/1999/xlink" x="0px" y="0px"
	 viewBox="0 0 370.2 89" style="enable-background:new 0 0 370.2 89;" xml:space="preserve">
<style type="text/css">
	.st0{fill:#FFFFFF;}
</style>
<g>
	<path class="st0" d="M11.6,57.7c-2.3-1.1-4.1-2.5-5.3-4.4c-1.3-1.9-1.9-4.1-1.9-6.6c0-2.1,0.4-4,1.3-5.8c0.9-1.7,2.1-3.1,3.6-4.1
		s3.2-1.5,5-1.5c1.7,0,3.1,0.4,4.3,1.3c1.2,0.8,1.9,2,2.2,3.5c-2.5,0-4.5,0.7-6,2c-1.5,1.3-2.2,3.1-2.2,5.4c0,2.1,0.6,3.7,1.9,5
		c1.2,1.2,2.9,1.9,5,1.9c2.5,0,4.7-0.9,6.3-2.6c1.7-1.7,2.5-3.9,2.5-6.5c0-2.3-0.6-4.4-1.9-6.4c-1.3-2-3.1-4.5-5.6-7.4
		c-2.6-3-4.6-5.5-5.9-7.7c-1.3-2.1-2-4.5-2-7c0-2.5,0.7-4.7,2.1-6.7c1.4-2,3.3-3.6,5.8-4.7c2.5-1.2,5.2-1.7,8.3-1.7
		c3.9,0,7,0.9,9.3,2.7c2.3,1.8,3.5,4.3,3.5,7.4c0,2-0.5,3.7-1.5,4.9c-1,1.3-2.3,1.9-4,1.9c-1.8,0-3.3-0.7-4.4-2.2
		c0.9-0.7,1.6-1.6,2.2-2.7c0.5-1.1,0.8-2.3,0.8-3.5c0-1.5-0.5-2.8-1.4-3.7C32.6,7.4,31.3,7,29.7,7C27.8,7,26.2,7.7,25,9
		c-1.2,1.4-1.8,3.1-1.8,5.2c0,1.9,0.6,3.7,1.7,5.4c1.1,1.7,2.8,3.8,5.2,6.4c1.9,2.1,3.5,3.8,4.7,5.3c1.2,1.5,2.2,3.2,3,5.2
		c0.8,1.9,1.3,4.1,1.3,6.3c0,3.1-0.9,5.9-2.6,8.4c-1.7,2.5-4,4.5-7,5.9s-6.2,2.2-9.8,2.2C16.5,59.3,13.9,58.7,11.6,57.7z"/>
	<path class="st0" d="M45.1,55.5C43,53.7,42,50.8,42,46.9c0-3.3,0.7-6.9,2-10.9c1.3-4,3.5-7.4,6.5-10.3c3-2.9,6.7-4.4,11.3-4.4
		c6.2,0,9.2,3.8,9.2,11.5v0.1c0.1,0,0.4,0.1,0.8,0.1c1.6,0,3.4-0.4,5.5-1.3c2.1-0.8,3.9-1.9,5.6-3.1l0.6,1.9
		c-1.4,1.5-3.2,2.8-5.4,3.8c-2.2,1-4.7,1.8-7.3,2.2c-0.4,4.4-1.4,8.2-3,11.5c-1.6,3.3-3.6,5.8-6.1,7.6c-2.5,1.8-5.2,2.7-8.1,2.7
		C50,58.3,47.2,57.3,45.1,55.5z M59.9,49.8c1.2-1.3,2.2-3.1,3-5.4c0.9-2.3,1.5-4.8,1.9-7.6c-1.3-0.3-1.9-1.3-1.9-3
		c0-2,0.7-3.3,2.2-3.9c-0.1-1.6-0.3-2.7-0.7-3.3c-0.4-0.6-1.1-0.9-2-0.9c-1.6,0-3.1,1.2-4.6,3.5c-1.5,2.3-2.7,5.1-3.6,8.3
		c-0.9,3.2-1.4,6.1-1.4,8.5c0,2.3,0.3,3.9,0.8,4.7c0.5,0.8,1.5,1.2,2.9,1.2C57.6,51.8,58.7,51.1,59.9,49.8z"/>
	<path class="st0" d="M76.2,56.2c-1.4-1.4-2.1-3.6-2.1-6.5c0-1.2,0.2-2.8,0.6-4.7l4.9-23.2H90l-5.2,24.5c-0.1,0.7-0.2,1.4-0.2,2
		c0,2,0.7,3,2.2,3c1.3,0,2.5-0.6,3.5-1.7c1-1.1,1.7-2.7,2.3-4.7l4.9-23.2h10.4l-5.2,24.5c-0.2,0.7-0.3,1.5-0.3,2.3
		c0,1,0.2,1.6,0.7,2.1c0.5,0.4,1.2,0.6,2.3,0.6c1.3,0,2.5-0.6,3.5-1.7c1-1.2,1.8-2.7,2.3-4.6h3c-1.8,5.2-4,8.7-6.6,10.6
		c-2.6,1.9-5.3,2.8-7.9,2.8c-2.1,0-3.7-0.6-4.9-1.7s-2-2.9-2.2-5.1c-1.6,2.6-3.4,4.4-5.2,5.4c-1.8,1-3.6,1.4-5.5,1.4
		C79.5,58.4,77.6,57.7,76.2,56.2z"/>
	<path class="st0" d="M130.7,56.1c-1.4-1.6-2.1-3.5-2.1-5.8c0-1,0.1-2.2,0.4-3.4c0.2-1.3,0.5-2.5,0.8-3.7c0.3-1.2,0.4-2,0.5-2.3
		c0.4-1.7,0.7-3.3,1.1-5c0.3-1.6,0.5-3,0.5-4c0-2.5-0.9-3.7-2.6-3.7c-1.3,0-2.4,0.6-3.3,1.8c-1,1.2-1.7,2.8-2.3,4.8L118.7,58h-10.4
		l7.6-36.1h10.4l-0.8,3.8c2.4-2.7,5.2-4,8.4-4c2.5,0,4.4,0.7,5.8,2c1.4,1.3,2.2,3.4,2.2,6.1c0,1.4-0.2,2.9-0.5,4.7
		c-0.3,1.7-0.8,3.8-1.4,6.2c-0.4,1.5-0.7,2.9-1,4.4c-0.3,1.4-0.5,2.5-0.5,3.4c0,1,0.2,1.7,0.6,2.2c0.4,0.5,1.2,0.8,2.2,0.8
		c1.4,0,2.6-0.5,3.5-1.6c0.9-1,1.7-2.6,2.6-4.8h3c-1.8,5.3-3.8,8.8-6.2,10.6c-2.3,1.8-4.7,2.7-7.2,2.7
		C134.2,58.4,132,57.6,130.7,56.1z"/>
	<path class="st0" d="M149.3,55.6c-1.8-1.9-2.7-4.8-2.7-8.8c0-3.6,0.7-7.3,2.1-11.2c1.4-3.9,3.5-7.2,6.3-10
		c2.8-2.7,6.2-4.1,10.1-4.1c2,0,3.4,0.3,4.4,1c1,0.7,1.4,1.6,1.4,2.7v0.3l3.5-16.6l10.7-1.4l-8.3,38.9c-0.2,0.7-0.3,1.4-0.3,2.1
		c0,1.9,1,2.9,3,2.9c0.9,0,1.6-0.1,2.3-0.4c-0.2,2.4-1,4.2-2.6,5.5c-1.5,1.3-3.3,1.9-5.4,1.9c-1.9,0-3.5-0.5-4.9-1.5
		c-1.3-1-2.2-2.5-2.6-4.5c-2.9,4-6.3,6-10.2,6C153.4,58.4,151.1,57.5,149.3,55.6z M164.1,50c1.1-0.9,1.9-2.2,2.4-3.8l0.3-1.2
		l3.5-16.5c-0.4-1.7-1.4-2.5-3-2.5c-1.9,0-3.7,1.1-5.2,3.4c-1.5,2.2-2.7,4.9-3.6,8.1c-0.9,3.2-1.3,5.9-1.3,8.3s0.3,3.9,1,4.6
		c0.7,0.7,1.6,1,2.6,1C161.9,51.4,163,50.9,164.1,50z"/>
	<path class="st0" d="M198.4,12.1l10.7-1.4L204,34.7c2.3-0.2,4.4-1.2,6.4-3c1.9-1.8,3.5-4.1,4.6-6.8c1.1-2.7,1.7-5.3,1.7-7.9
		c0-2.9-0.7-5.2-2.2-7.1c-1.5-1.8-3.7-2.7-6.7-2.7c-5.9,0-10.4,1.5-13.7,4.6c-3.3,3.1-4.9,7.4-4.9,12.9c0,1.8,0.2,3,0.5,3.7
		c0.3,0.7,0.5,1.1,0.5,1.2c-2.6,0-4.5-0.5-5.8-1.6c-1.3-1.1-1.9-2.9-1.9-5.4c0-3.1,1.3-6.1,3.8-9c2.5-2.9,5.8-5.3,9.7-7.1
		c3.9-1.8,7.9-2.7,11.8-2.7c3.8,0,7,0.6,9.5,1.9c2.5,1.3,4.4,3,5.7,5.2c1.2,2.1,1.8,4.5,1.8,7.1c0,3.1-0.9,6.2-2.6,9.2
		c-1.7,3-4.1,5.4-7.3,7.3c-3.2,1.9-6.8,2.8-11,2.8h-0.4L199,58h-10.4L198.4,12.1z"/>
	<path class="st0" d="M225.3,55.5c-2.1-1.8-3.1-4.7-3.1-8.7c0-3.3,0.7-6.9,2-10.9c1.3-4,3.5-7.4,6.5-10.3c3-2.9,6.7-4.4,11.3-4.4
		c6.2,0,9.2,3.8,9.2,11.5v0.1c0.1,0,0.4,0.1,0.8,0.1c1.6,0,3.4-0.4,5.5-1.3c2.1-0.8,3.9-1.9,5.6-3.1l0.6,1.9
		c-1.4,1.5-3.2,2.8-5.4,3.8c-2.2,1-4.7,1.8-7.3,2.2c-0.4,4.4-1.4,8.2-3,11.5c-1.6,3.3-3.6,5.8-6.1,7.6c-2.5,1.8-5.2,2.7-8.1,2.7
		C230.1,58.3,227.3,57.3,225.3,55.5z M240.1,49.8c1.2-1.3,2.2-3.1,3-5.4c0.9-2.3,1.5-4.8,1.9-7.6c-1.3-0.3-1.9-1.3-1.9-3
		c0-2,0.7-3.3,2.2-3.9c-0.1-1.6-0.3-2.7-0.7-3.3c-0.4-0.6-1.1-0.9-2-0.9c-1.6,0-3.1,1.2-4.6,3.5s-2.7,5.1-3.6,8.3
		c-0.9,3.2-1.4,6.1-1.4,8.5c0,2.3,0.3,3.9,0.8,4.7c0.5,0.8,1.5,1.2,2.9,1.2C237.7,51.8,238.9,51.1,240.1,49.8z"/>
	<path class="st0" d="M256.9,55.6c-2-1.9-3-4.7-3-8.7c0-3.3,0.7-7,2-11c1.3-4,3.4-7.4,6.3-10.3c2.9-2.9,6.6-4.4,11.1-4.4
		c2.9,0,4.9,0.6,6.2,1.9c1.2,1.3,1.8,2.8,1.8,4.8c0,1.7-0.4,3-1.1,3.9c-0.7,0.9-1.6,1.4-2.7,1.4c-0.8,0-1.7-0.3-2.5-0.9
		c0.6-1.6,0.9-3,0.9-4.3c0-0.9-0.2-1.6-0.5-2.2c-0.3-0.5-0.8-0.8-1.5-0.8c-1.4,0-2.9,1.2-4.3,3.5c-1.4,2.4-2.6,5.2-3.5,8.6
		c-0.9,3.4-1.4,6.4-1.4,9.1c0,2.4,0.4,4,1.2,4.8c0.8,0.8,2.1,1.3,4,1.3c2.6,0,4.8-0.6,6.7-1.8c1.9-1.2,3.9-3,6.1-5.5h2.5
		c-5.3,8.9-11.9,13.3-19.8,13.3C261.6,58.4,258.8,57.5,256.9,55.6z"/>
	<path class="st0" d="M302.9,56.3c-1.5-1.4-2.3-3.5-2.3-6.1c0-1.2,0.1-2.4,0.4-3.8l0.6-2.8c0.2-0.8,0.3-1.7,0.3-2.7
		c0-2.3-0.9-3.5-2.6-3.5c-0.8,0-1.6,0.2-2.4,0.6c-0.8,0.4-1.8,1.1-2.9,2L290.2,58h-10.4l10.5-49l10.7-1.4l-5.4,25.4l13.9-11h7.1
		l-14.4,10c0.7-0.2,1.5-0.3,2.4-0.3c2.6,0,4.6,0.8,5.9,2.4c1.3,1.6,2,3.6,2,6.1c0,1-0.1,1.9-0.3,2.7l-0.8,3.6
		c-0.2,0.9-0.4,1.6-0.4,2.3c0,1.8,0.9,2.7,2.8,2.7c1.4,0,2.6-0.5,3.5-1.6c0.9-1,1.7-2.6,2.6-4.8h3c-3,8.9-7.4,13.3-13.3,13.3
		C306.7,58.4,304.4,57.7,302.9,56.3z"/>
	<path class="st0" d="M321.9,55.6c-2-1.9-3-4.7-3-8.7c0-3.3,0.6-7,1.9-11c1.3-4,3.4-7.4,6.3-10.3c2.9-2.9,6.7-4.4,11.2-4.4
		c5.3,0,7.9,2.3,7.9,6.9c0,2.7-0.8,5.2-2.3,7.4c-1.5,2.3-3.6,4.1-6.1,5.4c-2.5,1.4-5.3,2.2-8.2,2.3c-0.1,1.4-0.1,2.4-0.1,2.9
		c0,2.4,0.4,4,1.2,4.8c0.8,0.8,2.1,1.3,4,1.3c2.6,0,4.8-0.6,6.7-1.8c1.9-1.2,3.9-3,6.1-5.5h2.5c-5.3,8.9-11.9,13.3-19.8,13.3
		C326.6,58.4,323.9,57.5,321.9,55.6z M335.4,38.1c1.6-1.2,2.9-2.6,3.9-4.4c1-1.8,1.5-3.7,1.5-5.6c0-2-0.6-3-1.8-3
		c-1.7,0-3.4,1.5-5.1,4.5s-2.8,6.5-3.6,10.3C332.1,39.8,333.8,39.2,335.4,38.1z"/>
	<path class="st0" d="M348.9,56.2c-1.2-1.5-1.8-3.5-1.8-5.9c0-1.2,0.1-2.5,0.4-3.8l4.6-21.6h-2.4l0.6-2.9h2.4l2.2-10l10.7-1.4
		c-0.4,1.8-0.7,2.9-0.7,3.2c-0.3,1.3-0.9,4.1-1.7,8.1h4.3l-0.6,2.9h-4.3L358,46.4c-0.2,1.1-0.4,1.9-0.4,2.5c0,1.7,0.8,2.6,2.5,2.6
		c0.9,0,1.5-0.1,1.9-0.2c-1,2.8-2.1,4.7-3.4,5.6c-1.3,1-2.7,1.4-4.3,1.4C351.9,58.4,350.1,57.7,348.9,56.2z"/>
</g>
<g>
	<path class="st0" d="M144.6,83.2c-0.3-0.3-0.5-0.8-0.5-1.3c0-0.3,0-0.5,0.1-0.8l1.5-7l2.1-0.3l-0.7,3.1c0.3-0.2,0.5-0.3,0.6-0.3
		c0.2-0.1,0.3-0.1,0.5-0.1c1.1,0,1.7,0.8,1.7,2.4c0,0.6-0.1,1.3-0.4,2.1c-0.2,0.7-0.7,1.4-1.2,1.9c-0.6,0.5-1.3,0.8-2.2,0.8
		C145.4,83.7,145,83.5,144.6,83.2z M147.7,81.8c0.3-0.4,0.5-0.8,0.6-1.3c0.1-0.5,0.2-1.1,0.2-1.5c0-0.4-0.1-0.7-0.2-1
		c-0.1-0.3-0.3-0.4-0.5-0.4c-0.1,0-0.3,0-0.5,0.1c-0.2,0-0.3,0.1-0.4,0.2l-0.8,3.6c0,0.1,0,0.2,0,0.3c0,0.4,0.2,0.6,0.7,0.6
		C147.2,82.3,147.4,82.1,147.7,81.8z"/>
	<path class="st0" d="M151.5,86.7c-0.3-0.3-0.5-0.6-0.5-1.1c0-0.4,0.1-0.7,0.3-1c0.2-0.3,0.5-0.5,0.8-0.6c0.3-0.1,0.8-0.3,1.3-0.5
		l0.1-0.6c-0.5,0.5-1,0.8-1.7,0.8c-0.4,0-0.8-0.1-1.1-0.4c-0.3-0.3-0.4-0.7-0.4-1.3c0-0.2,0-0.5,0.1-0.9l1-4.5h2l-1,4.8
		c0,0.1,0,0.2,0,0.3c0,0.4,0.1,0.6,0.4,0.6c0.3,0,0.5-0.1,0.7-0.3c0.2-0.2,0.3-0.5,0.4-0.9l1-4.5h2l-1.7,8.1c-0.2,0.9-0.5,1.5-1,1.9
		c-0.5,0.3-1,0.5-1.6,0.5C152.2,87.1,151.8,86.9,151.5,86.7z M152.8,85.6c0.1-0.2,0.3-0.5,0.4-0.8l0.2-0.8c-0.5,0.2-0.9,0.4-1.1,0.6
		c-0.3,0.2-0.4,0.5-0.4,0.9c0,0.1,0.1,0.2,0.2,0.3c0.1,0.1,0.2,0.1,0.4,0.1C152.5,85.8,152.6,85.8,152.8,85.6z"/>
	<path class="st0" d="M163.4,83l-0.1,0.6h-2l1.9-8.9l2.1-0.3l-1.7,7.9c0.3,0.2,0.5,0.3,0.8,0.3c0.5,0,1-0.3,1.4-0.9
		c0.4-0.6,0.7-1.4,0.9-2.4c0.2-1,0.3-1.9,0.3-2.9c0-0.9-0.2-1.6-0.5-2c-0.4-0.4-0.9-0.6-1.5-0.6c-0.7,0-1.3,0.1-1.9,0.4
		s-1,0.7-1.3,1.2c-0.3,0.5-0.5,1.1-0.5,1.8c0,0.3,0,0.6,0.1,0.7c0.1,0.1,0.1,0.2,0.1,0.2c-0.5,0-0.9-0.1-1.1-0.3
		c-0.3-0.2-0.4-0.5-0.4-1c0-0.6,0.2-1.2,0.7-1.8s1.1-1,1.9-1.4c0.8-0.3,1.7-0.5,2.6-0.5c1.3,0,2.2,0.4,2.8,1.1
		c0.6,0.8,0.9,1.7,0.9,2.9c0,1.1-0.2,2.1-0.5,3.1c-0.4,1-0.8,1.9-1.4,2.5c-0.6,0.7-1.2,1-1.9,1C164.5,83.8,163.9,83.5,163.4,83z"/>
	<path class="st0" d="M170.3,86.7c-0.3-0.2-0.4-0.6-0.4-1c0-0.5,0.2-1,0.6-1.3c0.4-0.3,1-0.6,1.6-0.8l0.2-0.8
		c-0.3,0.3-0.5,0.5-0.8,0.6c-0.3,0.1-0.6,0.2-0.9,0.2c-0.4,0-0.8-0.1-1.1-0.4c-0.3-0.3-0.4-0.7-0.4-1.3c0-0.2,0-0.5,0.1-0.9l1-4.5h2
		l-1,4.8c0,0.1,0,0.2,0,0.3c0,0.4,0.1,0.6,0.4,0.6c0.2,0,0.5-0.1,0.6-0.3s0.3-0.5,0.4-0.8l1-4.6h2l-1.4,6.5c0.4-0.1,0.8-0.4,1.1-0.7
		c0.3-0.3,0.5-0.7,0.7-1.3h0.6c-0.3,0.8-0.6,1.4-1,1.8c-0.4,0.4-0.9,0.7-1.5,0.8l-0.2,1c-0.2,0.9-0.5,1.5-1,1.9
		c-0.5,0.3-1,0.5-1.6,0.5C170.9,87.1,170.6,87,170.3,86.7z M171.5,85.7c0.1-0.2,0.3-0.5,0.3-0.9l0.1-0.4c-0.9,0.3-1.4,0.7-1.4,1.2
		c0,0.1,0,0.2,0.1,0.3c0.1,0.1,0.2,0.1,0.3,0.1C171.2,86,171.4,85.9,171.5,85.7z"/>
	<path class="st0" d="M179.8,83.2c-0.3-0.3-0.4-0.7-0.4-1.1c0-0.2,0-0.4,0.1-0.7c0-0.2,0.1-0.5,0.1-0.7c0.1-0.2,0.1-0.4,0.1-0.4
		c0.1-0.3,0.1-0.6,0.2-1c0.1-0.3,0.1-0.6,0.1-0.8c0-0.5-0.2-0.7-0.5-0.7c-0.2,0-0.5,0.1-0.6,0.4c-0.2,0.2-0.3,0.5-0.4,0.9l-1,4.5h-2
		l1.5-7h2l-0.2,0.7c0.5-0.5,1-0.8,1.6-0.8c0.5,0,0.9,0.1,1.1,0.4c0.3,0.3,0.4,0.7,0.4,1.2c0,0.3,0,0.6-0.1,0.9
		c-0.1,0.3-0.2,0.7-0.3,1.2c-0.1,0.3-0.1,0.6-0.2,0.8c-0.1,0.3-0.1,0.5-0.1,0.7c0,0.2,0,0.3,0.1,0.4c0.1,0.1,0.2,0.2,0.4,0.2
		c0.3,0,0.5-0.1,0.7-0.3c0.2-0.2,0.3-0.5,0.5-0.9h0.6c-0.3,1-0.7,1.7-1.2,2.1c-0.5,0.4-0.9,0.5-1.4,0.5
		C180.5,83.7,180.1,83.5,179.8,83.2z"/>
	<path class="st0" d="M183.4,83.1c-0.4-0.4-0.5-0.9-0.5-1.7c0-0.7,0.1-1.4,0.4-2.2c0.3-0.8,0.7-1.4,1.2-1.9s1.2-0.8,2-0.8
		c0.4,0,0.7,0.1,0.9,0.2s0.3,0.3,0.3,0.5v0.1l0.2-0.7h2l-1,4.8c0,0.1-0.1,0.3-0.1,0.4c0,0.4,0.2,0.6,0.6,0.6c0.3,0,0.5-0.1,0.7-0.4
		c0.2-0.2,0.3-0.6,0.5-1h0.6c-0.3,1-0.8,1.7-1.3,2.1s-1,0.5-1.5,0.5c-0.4,0-0.7-0.1-0.9-0.3c-0.2-0.2-0.4-0.5-0.4-1
		c-0.3,0.4-0.6,0.7-0.9,0.9c-0.3,0.2-0.7,0.4-1.2,0.4C184.2,83.7,183.8,83.5,183.4,83.1z M186.4,82c0.2-0.2,0.4-0.5,0.5-0.9l0.7-3.2
		c0-0.1,0-0.2-0.1-0.4c-0.1-0.1-0.2-0.2-0.4-0.2c-0.4,0-0.7,0.2-1,0.7c-0.3,0.4-0.5,1-0.7,1.6s-0.3,1.2-0.3,1.6s0.1,0.8,0.2,0.9
		c0.1,0.1,0.3,0.2,0.5,0.2C185.9,82.3,186.1,82.2,186.4,82z"/>
	<path class="st0" d="M197.7,83.2c-0.3-0.3-0.4-0.7-0.4-1.1c0-0.2,0-0.4,0.1-0.7c0-0.2,0.1-0.5,0.1-0.7s0.1-0.4,0.1-0.4
		c0.1-0.3,0.1-0.6,0.2-1c0.1-0.3,0.1-0.6,0.1-0.8c0-0.5-0.2-0.7-0.5-0.7c-0.2,0-0.5,0.1-0.6,0.4c-0.2,0.2-0.3,0.5-0.4,0.9l-1,4.5h-2
		l1-4.8c0-0.1,0-0.2,0-0.4c0-0.4-0.1-0.6-0.4-0.6c-0.3,0-0.5,0.1-0.7,0.4c-0.2,0.2-0.3,0.6-0.5,0.9l-1,4.5h-2l1.5-7h2l-0.2,0.7
		c0.5-0.5,1-0.8,1.7-0.8c0.8,0,1.3,0.4,1.4,1.2c0.5-0.8,1.2-1.2,1.9-1.2c0.5,0,0.9,0.1,1.1,0.4c0.3,0.3,0.4,0.7,0.4,1.2
		c0,0.3,0,0.6-0.1,0.9s-0.2,0.7-0.3,1.2c-0.1,0.3-0.1,0.6-0.2,0.8c-0.1,0.3-0.1,0.5-0.1,0.7c0,0.2,0,0.3,0.1,0.4
		c0.1,0.1,0.2,0.2,0.4,0.2c0.3,0,0.5-0.1,0.7-0.3c0.2-0.2,0.3-0.5,0.5-0.9h0.6c-0.3,1-0.7,1.7-1.2,2.1c-0.5,0.4-0.9,0.5-1.4,0.5
		C198.4,83.7,198,83.5,197.7,83.2z"/>
	<path class="st0" d="M201.3,83.2c-0.3-0.3-0.4-0.7-0.4-1.3c0-0.2,0-0.5,0.1-0.9l1-4.5h2l-1,4.8c0,0.1-0.1,0.3-0.1,0.4
		c0,0.2,0,0.3,0.1,0.4c0.1,0.1,0.2,0.1,0.4,0.1c0.3,0,0.5-0.1,0.8-0.3s0.4-0.5,0.5-0.9h0.6c-0.3,1-0.8,1.7-1.3,2.1
		c-0.5,0.4-1.1,0.5-1.6,0.5C201.9,83.7,201.5,83.5,201.3,83.2z M202.5,75.5c-0.2-0.2-0.3-0.5-0.3-0.8s0.1-0.6,0.3-0.8
		c0.2-0.2,0.5-0.3,0.8-0.3c0.3,0,0.6,0.1,0.8,0.3c0.2,0.2,0.3,0.5,0.3,0.8s-0.1,0.6-0.3,0.8c-0.2,0.2-0.5,0.3-0.8,0.3
		C203,75.8,202.7,75.7,202.5,75.5z"/>
	<path class="st0" d="M205,83.1c-0.4-0.4-0.6-0.9-0.6-1.7c0-0.6,0.1-1.4,0.4-2.1c0.3-0.8,0.7-1.4,1.2-2c0.6-0.6,1.3-0.8,2.1-0.8
		c0.6,0,1,0.1,1.2,0.4c0.2,0.2,0.4,0.6,0.4,0.9c0,0.3-0.1,0.6-0.2,0.8c-0.1,0.2-0.3,0.3-0.5,0.3c-0.2,0-0.3-0.1-0.5-0.2
		c0.1-0.3,0.2-0.6,0.2-0.8c0-0.4-0.1-0.6-0.4-0.6c-0.3,0-0.6,0.2-0.8,0.7s-0.5,1-0.7,1.7c-0.2,0.6-0.3,1.2-0.3,1.7
		c0,0.8,0.3,1.2,0.8,1.2c0.3,0,0.5-0.1,0.8-0.2s0.6-0.3,0.8-0.5c-0.3,1.4-1.1,2.1-2.4,2.1C205.9,83.7,205.4,83.5,205,83.1z"/>
	<path class="st0" d="M216,83l-0.1,0.6h-2l1.9-8.9l2.1-0.3l-1.7,7.9c0.3,0.2,0.5,0.3,0.8,0.3c0.5,0,1-0.3,1.4-0.9
		c0.4-0.6,0.7-1.4,0.9-2.4s0.3-1.9,0.3-2.9c0-0.9-0.2-1.6-0.5-2c-0.4-0.4-0.9-0.6-1.5-0.6c-0.7,0-1.3,0.1-1.9,0.4
		c-0.6,0.3-1,0.7-1.3,1.2c-0.3,0.5-0.5,1.1-0.5,1.8c0,0.3,0,0.6,0.1,0.7c0.1,0.1,0.1,0.2,0.1,0.2c-0.5,0-0.9-0.1-1.1-0.3
		c-0.3-0.2-0.4-0.5-0.4-1c0-0.6,0.2-1.2,0.7-1.8c0.5-0.6,1.1-1,1.9-1.4c0.8-0.3,1.7-0.5,2.6-0.5c1.3,0,2.2,0.4,2.8,1.1
		c0.6,0.8,0.9,1.7,0.9,2.9c0,1.1-0.2,2.1-0.5,3.1c-0.4,1-0.8,1.9-1.4,2.5s-1.2,1-1.9,1C217.1,83.8,216.5,83.5,216,83z"/>
	<path class="st0" d="M222.1,83.2c-0.3-0.3-0.4-0.7-0.4-1.3c0-0.2,0-0.5,0.1-0.9l1-4.5h2l-1,4.8c0,0.1,0,0.3,0,0.4
		c0,0.4,0.1,0.6,0.4,0.6c0.3,0,0.5-0.1,0.7-0.3c0.2-0.2,0.3-0.5,0.4-0.9l1-4.5h2l-1,4.8c0,0.1-0.1,0.3-0.1,0.4c0,0.2,0,0.3,0.1,0.4
		c0.1,0.1,0.2,0.1,0.4,0.1c0.3,0,0.5-0.1,0.7-0.3c0.2-0.2,0.3-0.5,0.5-0.9h0.6c-0.3,1-0.8,1.7-1.3,2.1s-1,0.5-1.5,0.5
		c-0.4,0-0.7-0.1-1-0.3c-0.2-0.2-0.4-0.6-0.4-1c-0.3,0.5-0.7,0.9-1,1c-0.4,0.2-0.7,0.3-1.1,0.3C222.7,83.7,222.4,83.5,222.1,83.2z"
		/>
	<path class="st0" d="M229.3,83.4c-0.3-0.2-0.5-0.4-0.7-0.7c-0.1-0.3-0.2-0.6-0.2-0.9c0-0.3,0.1-0.6,0.2-0.8
		c0.1-0.2,0.3-0.4,0.5-0.5c0.4-0.7,0.7-1.3,1-2s0.5-1.4,0.8-2.2l2.1-0.3c0,1.2,0.1,2.5,0.2,3.9c0,0.6,0.1,1,0.1,1.2
		c0,0.2,0,0.4-0.1,0.5c0.4-0.3,0.8-0.5,1-0.7h0.6c-0.6,0.7-1.3,1.3-2.1,1.8c-0.3,0.3-0.6,0.5-1,0.6c-0.4,0.1-0.8,0.2-1.2,0.2
		C230,83.7,229.6,83.6,229.3,83.4z M230.9,82.3c0.2-0.2,0.3-0.5,0.3-1c0-0.3,0-0.7-0.1-1.2c-0.1-1.1-0.2-1.8-0.2-2.1
		c-0.2,0.7-0.6,1.6-1.1,2.6c0.2,0.1,0.3,0.3,0.3,0.5c0,0.2-0.1,0.3-0.2,0.5c-0.1,0.1-0.3,0.2-0.4,0.2c-0.2,0-0.3-0.1-0.4-0.2
		c0,0.3,0.1,0.6,0.2,0.7c0.1,0.2,0.4,0.2,0.7,0.2C230.4,82.6,230.6,82.5,230.9,82.3z"/>
	<path class="st0" d="M238.2,83.3c-0.3-0.3-0.4-0.7-0.4-1.2c0-0.2,0-0.5,0.1-0.7l0.1-0.5c0-0.2,0.1-0.3,0.1-0.5
		c0-0.4-0.2-0.7-0.5-0.7c-0.1,0-0.3,0-0.5,0.1s-0.4,0.2-0.6,0.4l-0.7,3.5h-2l2-9.5l2.1-0.3l-1,4.9l2.7-2.1h1.4l-2.8,1.9
		c0.1,0,0.3-0.1,0.5-0.1c0.5,0,0.9,0.2,1.1,0.5c0.3,0.3,0.4,0.7,0.4,1.2c0,0.2,0,0.4-0.1,0.5l-0.2,0.7c0,0.2-0.1,0.3-0.1,0.4
		c0,0.3,0.2,0.5,0.5,0.5c0.2,0,0.3,0,0.4,0c0.1,0,0.1,0,0.1,0c0,0.3-0.1,0.6-0.3,0.8c-0.2,0.2-0.3,0.4-0.5,0.5
		c-0.2,0.1-0.4,0.2-0.5,0.2C238.9,83.7,238.5,83.5,238.2,83.3z"/>
</g>
</svg>
